# xmcd CD database file
#
# Track frame offsets:
#	150
#	11449
#	26832
#	41069
#	54647
#	66150
#	80312
#	94704
#	108448
#	122615
#	138557
#	152244
#	164148
#	181784
#	195712
#	209875
#	228126
#	242447
#	256695
#	271324
#
# Disc length: 3819 seconds
#
# Revision: 0
# Processed by: cddbd v1.5.1PL2 Copyright (c) Steve Scherf et al.
# Submitted via: CDex 1.51
#
DISCID=140ee914
DTITLE=Various Artist - Ella Fitzgerald and Louis Armstrong, CD 1
DYEAR=1900
DGENRE=Jazz
TTITLE0=Ella Fitzgerald: A Tisket - A Tasket
TTITLE1=Louis Armstrong: Bye and Bye
TTITLE2=Ella Fitzgarald: My Heart Belongs To Daddy
TTITLE3=Louis Armstrong: Snake Rag
TTITLE4=Ella Fitzgarald:: It's Only A Paper Moon
TTITLE5=Ella Fitzgarald: Don't Worry About Me
TTITLE6=Ella Fitzgarald and Louis Armstrong: Can Anyone Explain
TTITLE7=Louis Armstrong: St. Louis Blues
TTITLE8=Ella Fitzgarald: Bei Mir Bist Du Schoen
TTITLE9=Louis Armstrong: When You're Smiling 
TTITLE10=Louis Armstrong: Do You Know What It Means To Miss New Orleans
TTITLE11=Ella Fitzgarald: Cryin' Mood
TTITLE12=Louis Armstrong: Basin Street Blues
TTITLE13=Ella Fitzgarald: It's Foxy
TTITLE14=Ella Fitzgarald: Into Each Life Some Rain Must Fall
TTITLE15=Louis Armstrong: Back Ole Town Blues
TTITLE16=Ella Fitzgarald: Crying My Heart Out For You
TTITLE17=Louis Armstrong: I Used To Love You
TTITLE18=Ella Fitzgarald: Dedicated To You
TTITLE19=Louis Armstrong: Chinatown, My Chinatown
EXTD=
EXTT0=
EXTT1=
EXTT2=
EXTT3=
EXTT4=
EXTT5=
EXTT6=
EXTT7=
EXTT8=
EXTT9=
EXTT10=
EXTT11=
EXTT12=
EXTT13=
EXTT14=
EXTT15=
EXTT16=
EXTT17=
EXTT18=
EXTT19=
PLAYORDER=
